<svg width="240" height="240" viewBox="0 0 240 240" fill="none" xmlns="http://www.w3.org/2000/svg">
<g clip-path="url(#clip0_1480_6376)">
<path d="M54.229 167.001C51.9011 170.98 50.4583 175.414 49.999 180.001C49.999 196.181 64.759 203.561 75.529 208.951C83.999 213.181 89.999 216.461 89.999 220.001C89.2359 223.524 87.7252 226.842 85.569 229.731L102.709 240.001C106.861 234.094 109.376 227.194 109.999 220.001C109.999 203.821 95.239 196.441 84.469 191.051C75.999 186.821 69.999 183.541 69.939 180.751C71.47 176.802 73.4284 173.033 75.779 169.511C99.219 166.361 118.929 144.451 130.109 117.511C136.427 134.298 148.675 148.189 164.539 156.561C160.544 164.068 159.208 172.707 160.749 181.071C162.814 186.834 166.073 192.096 170.312 196.513C174.551 200.929 179.675 204.401 185.349 206.701C200.089 215.121 203.649 217.871 196.509 231.171L214.129 240.621C230.779 209.621 208.549 196.921 195.269 189.341C188.119 185.251 181.369 181.401 180.219 176.501C179.818 170.375 181.703 164.318 185.509 159.501C216.999 154.791 239.999 110.171 239.999 70.0006C240.278 62.046 238.918 54.1191 236.001 46.7131C233.085 39.3072 228.675 32.5808 223.047 26.9526C217.419 21.3244 210.692 16.9149 203.286 13.9985C195.881 11.0821 187.954 9.7212 179.999 10.0006C170.329 9.73571 160.744 11.8681 152.098 16.2075C143.452 20.5469 136.015 26.9586 130.449 34.8706C122.731 21.5549 110.836 11.1569 96.608 5.28818C82.3801 -0.580541 66.6136 -1.59223 51.7522 2.40991C36.8909 6.41206 23.7646 15.2045 14.4079 27.4246C5.05119 39.6446 -0.0134172 54.6098 -0.000953614 70.0006C-0.000953614 109.851 22.729 155.191 54.229 167.001ZM179.999 30.0006C185.331 29.6991 190.666 30.5273 195.656 32.4308C200.646 34.3344 205.177 37.2704 208.953 41.0466C212.729 44.8228 215.665 49.3541 217.569 54.3437C219.472 59.3333 220.3 64.6687 219.999 70.0006C219.999 104.001 199.439 140.001 179.999 140.001C160.559 140.001 139.999 104.001 139.999 70.0006C139.698 64.6687 140.526 59.3333 142.429 54.3437C144.333 49.3541 147.269 44.8228 151.045 41.0466C154.821 37.2704 159.353 34.3344 164.342 32.4308C169.332 30.5273 174.667 29.6991 179.999 30.0006ZM69.999 20.0006C83.255 20.0164 95.9635 25.2894 105.337 34.6628C114.71 44.0361 119.983 56.7446 119.999 70.0006C119.999 105.261 96.459 150.001 69.999 150.001C43.539 150.001 19.999 105.261 19.999 70.0006C20.0149 56.7446 25.2879 44.0361 34.6612 34.6628C44.0346 25.2894 56.7431 20.0164 69.999 20.0006Z" fill="url(#paint0_linear_1480_6376)"/>
<path d="M199.772 80H179.772C178.96 88.7587 176.137 97.2117 171.521 104.7L188.522 115.3C195.098 104.629 198.961 92.5089 199.772 80Z" fill="url(#paint1_linear_1480_6376)"/>
<path d="M99.7685 80H79.7685C78.9571 88.7587 76.1337 97.2117 71.5186 104.7L88.5185 115.3C95.0953 104.629 98.9578 92.5089 99.7685 80Z" fill="url(#paint2_linear_1480_6376)"/>
</g>
<defs>
<linearGradient id="paint0_linear_1480_6376" x1="120.017" y1="0.00390625" x2="120.017" y2="240.621" gradientUnits="userSpaceOnUse">
<stop stop-color="#0692FE"/>
<stop offset="0.432292" stop-color="#65B4FE"/>
<stop offset="1" stop-color="#E1E1FF"/>
</linearGradient>
<linearGradient id="paint1_linear_1480_6376" x1="185.647" y1="80" x2="185.647" y2="115.3" gradientUnits="userSpaceOnUse">
<stop stop-color="#0692FE"/>
<stop offset="0.432292" stop-color="#65B4FE"/>
<stop offset="1" stop-color="#E1E1FF"/>
</linearGradient>
<linearGradient id="paint2_linear_1480_6376" x1="85.6435" y1="80" x2="85.6435" y2="115.3" gradientUnits="userSpaceOnUse">
<stop stop-color="#0692FE"/>
<stop offset="0.432292" stop-color="#65B4FE"/>
<stop offset="1" stop-color="#E1E1FF"/>
</linearGradient>
<clipPath id="clip0_1480_6376">
<rect width="240" height="240" fill="white"/>
</clipPath>
</defs>
</svg>
