<svg width="23" height="26" viewBox="0 0 23 26" fill="none" xmlns="http://www.w3.org/2000/svg">
<path d="M22.0798 17.0155L19.8798 14.753V9.17798C19.9091 7.10776 19.205 5.09662 17.8975 3.5159C16.5901 1.93518 14.7675 0.89165 12.7665 0.577981C11.6051 0.421565 10.4245 0.520249 9.30345 0.86745C8.18235 1.21465 7.14655 1.80238 6.26515 2.59143C5.38375 3.38048 4.67702 4.3527 4.19212 5.44322C3.70721 6.53375 3.45529 7.71749 3.45315 8.91548V14.753L1.25315 17.0155C0.976814 17.3028 0.78942 17.6671 0.714396 18.0627C0.639372 18.4584 0.680047 18.8679 0.831335 19.24C0.982624 19.6122 1.23781 19.9305 1.565 20.1551C1.89219 20.3797 2.27686 20.5007 2.67093 20.503H6.7776V20.928C6.83469 22.197 7.38132 23.3911 8.29771 24.2486C9.2141 25.1062 10.4255 25.5573 11.6665 25.503C12.9075 25.5573 14.1189 25.1062 15.0353 24.2486C15.9517 23.3911 16.4983 22.197 16.5554 20.928V20.503H20.662C21.0561 20.5007 21.4408 20.3797 21.768 20.1551C22.0952 19.9305 22.3503 19.6122 22.5016 19.24C22.6529 18.8679 22.6936 18.4584 22.6186 18.0627C22.5436 17.6671 22.3562 17.3028 22.0798 17.0155ZM14.1109 20.928C14.0431 21.5292 13.7512 22.0806 13.2958 22.4671C12.8404 22.8536 12.2568 23.0456 11.6665 23.003C11.0762 23.0456 10.4925 22.8536 10.0372 22.4671C9.58181 22.0806 9.28982 21.5292 9.22204 20.928V20.503H14.1109V20.928ZM3.73426 18.003L5.17649 16.528C5.40525 16.2954 5.58674 16.0188 5.7105 15.7142C5.83427 15.4096 5.89785 15.0829 5.8976 14.753V8.91548C5.89826 8.07223 6.07529 7.23889 6.41679 6.47137C6.75829 5.70385 7.25637 5.01992 7.8776 4.46548C8.49044 3.89758 9.21663 3.47267 10.0059 3.22015C10.7952 2.96762 11.6287 2.89353 12.4487 3.00298C13.8622 3.2377 15.1452 3.98674 16.0615 5.11221C16.9778 6.23767 17.4657 7.66378 17.4354 9.12798V14.753C17.4335 15.082 17.4952 15.4082 17.6168 15.7127C17.7385 16.0173 17.9177 16.2944 18.1443 16.528L19.5987 18.003H3.73426Z" fill="#444444"/>
</svg>
