<svg width="12" height="24" viewBox="0 0 12 24" fill="none" xmlns="http://www.w3.org/2000/svg">
<path d="M6.09427 23.5937C5.76094 23.5937 5.4901 23.4948 5.28177 23.2969C5.07344 23.099 4.96927 22.8333 4.96927 22.5V20.9062C3.88594 20.7187 2.9849 20.3385 2.26615 19.7656C1.5474 19.1927 0.979687 18.4792 0.563021 17.625C0.417187 17.3125 0.427604 16.9844 0.594271 16.6406C0.760938 16.2969 1.02135 16.0521 1.37552 15.9062C1.66719 15.8021 1.96927 15.8125 2.28177 15.9375C2.59427 16.0625 2.8651 16.2917 3.09427 16.625C3.44844 17.25 3.90677 17.7083 4.46927 18C5.03177 18.2917 5.63594 18.4375 6.28177 18.4375C7.21927 18.4375 7.96406 18.224 8.51615 17.7969C9.06823 17.3698 9.34427 16.7917 9.34427 16.0625C9.34427 15.25 9.0526 14.599 8.46927 14.1094C7.88594 13.6198 6.81302 13.1354 5.25052 12.6562C3.79219 12.2187 2.68281 11.5677 1.9224 10.7031C1.16198 9.83854 0.78177 8.78125 0.78177 7.53125C0.78177 6.44792 1.12552 5.48438 1.81302 4.64063C2.50052 3.79688 3.5526 3.27083 4.96927 3.0625V1.5C4.96927 1.16667 5.07344 0.901042 5.28177 0.703125C5.4901 0.505209 5.76094 0.40625 6.09427 0.40625C6.40677 0.40625 6.66719 0.505209 6.87552 0.703125C7.08385 0.901042 7.18802 1.16667 7.18802 1.5V3.0625C7.91719 3.20833 8.59948 3.45833 9.23489 3.8125C9.87031 4.16667 10.3964 4.64583 10.813 5.25C11.0005 5.54167 11.0318 5.85417 10.9068 6.1875C10.7818 6.52083 10.5422 6.76042 10.188 6.90625C9.91719 7.03125 9.62552 7.04688 9.31302 6.95313C9.00052 6.85938 8.68802 6.66667 8.37552 6.375C8.10469 6.08333 7.77135 5.85938 7.37552 5.70313C6.97969 5.54688 6.53177 5.46875 6.03177 5.46875C5.1776 5.46875 4.52135 5.64063 4.06302 5.98438C3.60469 6.32813 3.37552 6.8125 3.37552 7.4375C3.37552 8.10417 3.62552 8.66146 4.12552 9.10938C4.62552 9.55729 5.76094 10.0521 7.53177 10.5937C8.9901 11.0729 10.0891 11.7448 10.8286 12.6094C11.5682 13.474 11.938 14.5833 11.938 15.9375C11.938 17.3125 11.537 18.4271 10.7349 19.2813C9.93281 20.1354 8.75052 20.6875 7.18802 20.9375V22.5C7.18802 22.8333 7.08385 23.099 6.87552 23.2969C6.66719 23.4948 6.40677 23.5937 6.09427 23.5937Z" fill="#444444"/>
</svg>
