<svg width="20" height="24" viewBox="0 0 20 24" fill="none" xmlns="http://www.w3.org/2000/svg">
<path d="M11.075 23.2742C10.7917 23.2742 10.55 23.1784 10.35 22.9867C10.15 22.7951 10.05 22.5576 10.05 22.2742C10.05 21.9909 10.15 21.7534 10.35 21.5617C10.55 21.3701 10.7917 21.2742 11.075 21.2742H17.275V19.9242H15.65C14.9833 19.9242 14.4208 19.6951 13.9625 19.2367C13.5042 18.7784 13.275 18.2159 13.275 17.5492V14.0242C13.275 13.3742 13.5042 12.8159 13.9625 12.3492C14.4208 11.8826 14.9833 11.6492 15.65 11.6492H17.275V10.5242C17.275 8.52422 16.5708 6.80339 15.1625 5.36172C13.7542 3.92005 12.05 3.19922 10.05 3.19922C8.06667 3.19922 6.35 3.92005 4.9 5.36172C3.45 6.80339 2.725 8.52422 2.725 10.5242V11.6492H4.375C5.025 11.6492 5.57917 11.8826 6.0375 12.3492C6.49583 12.8159 6.725 13.3742 6.725 14.0242V17.5492C6.725 18.2159 6.49583 18.7784 6.0375 19.2367C5.57917 19.6951 5.025 19.9242 4.375 19.9242H2.725C2.075 19.9242 1.52083 19.6909 1.0625 19.2242C0.604167 18.7576 0.375 18.1992 0.375 17.5492V10.5242C0.375 9.19089 0.629167 7.93672 1.1375 6.76172C1.64583 5.58672 2.3375 4.55755 3.2125 3.67422C4.0875 2.79089 5.1125 2.09505 6.2875 1.58672C7.4625 1.07839 8.71667 0.824219 10.05 0.824219C11.3833 0.824219 12.6333 1.07839 13.8 1.58672C14.9667 2.09505 15.9833 2.78672 16.85 3.66172C17.7167 4.53672 18.4 5.56172 18.9 6.73672C19.4 7.91172 19.65 9.17422 19.65 10.5242V20.9242C19.65 21.5742 19.4167 22.1284 18.95 22.5867C18.4833 23.0451 17.925 23.2742 17.275 23.2742H11.075ZM2.725 17.5492H4.375V14.0242H2.725V17.5492ZM15.65 17.5492H17.275V14.0242H15.65V17.5492ZM2.725 17.5492H4.375H2.725ZM15.65 17.5492H17.275H15.65Z" fill="#444444"/>
</svg>
