<svg width="18" height="24" viewBox="0 0 18 24" fill="none" xmlns="http://www.w3.org/2000/svg">
<path d="M9 10.75C9.98891 10.75 10.9556 10.4568 11.7779 9.90735C12.6001 9.35794 13.241 8.57705 13.6194 7.66342C13.9978 6.74979 14.0969 5.74446 13.9039 4.77455C13.711 3.80465 13.2348 2.91373 12.5355 2.21447C11.8363 1.51521 10.9454 1.039 9.97545 0.846076C9.00555 0.65315 8.00021 0.752166 7.08658 1.1306C6.17295 1.50904 5.39206 2.14991 4.84265 2.97215C4.29325 3.7944 4 4.7611 4 5.75C4 7.07608 4.52678 8.34785 5.46447 9.28554C6.40215 10.2232 7.67392 10.75 9 10.75Z" fill="#444444"/>
<path d="M16.5 23.25C16.8315 23.25 17.1495 23.1183 17.3839 22.8839C17.6183 22.6495 17.75 22.3315 17.75 22C17.75 19.6794 16.8281 17.4538 15.1872 15.8128C13.5462 14.1719 11.3206 13.25 9 13.25C6.67936 13.25 4.45376 14.1719 2.81282 15.8128C1.17187 17.4538 0.25 19.6794 0.25 22C0.25 22.3315 0.381696 22.6495 0.616117 22.8839C0.850537 23.1183 1.16848 23.25 1.5 23.25H16.5Z" fill="#444444"/>
</svg>
