<svg width="437" height="437" viewBox="0 0 437 437" fill="none" xmlns="http://www.w3.org/2000/svg">
<path d="M327.178 272.756C312.912 272.768 299.221 278.375 289.045 288.372L145.593 224.454C145.593 222.275 145.593 220.459 145.593 218.28C145.593 216.101 145.593 214.285 145.593 212.288L289.045 148.189C298.03 156.996 309.787 162.421 322.318 163.544C334.85 164.666 347.384 161.416 357.791 154.345C368.198 147.275 375.837 136.82 379.41 124.757C382.983 112.693 382.271 99.7643 377.393 88.1666C372.516 76.5688 363.774 67.0169 352.653 61.1332C341.531 55.2495 328.716 53.3968 316.384 55.8897C304.052 58.3826 292.963 65.0674 285 74.8088C277.037 84.5502 272.692 96.7476 272.702 109.329V115.503L129.25 179.421C121.594 171.899 111.886 166.806 101.345 164.782C90.8046 162.758 79.9009 163.893 70.0029 168.044C60.105 172.195 51.654 179.178 45.7106 188.116C39.7673 197.053 36.5967 207.547 36.5967 218.28C36.5967 229.014 39.7673 239.508 45.7106 248.445C51.654 257.383 60.105 264.365 70.0029 268.516C79.9009 272.668 90.8046 273.803 101.345 271.778C111.886 269.754 121.594 264.662 129.25 257.14L272.702 321.239V327.231C272.702 338.006 275.897 348.538 281.883 357.496C287.869 366.455 296.377 373.437 306.331 377.56C316.285 381.683 327.238 382.762 337.805 380.66C348.373 378.558 358.079 373.37 365.698 365.751C373.316 358.133 378.505 348.426 380.607 337.859C382.708 327.292 381.63 316.339 377.507 306.385C373.383 296.43 366.401 287.922 357.443 281.937C348.484 275.951 337.952 272.756 327.178 272.756Z" fill="#444444"/>
</svg>
