<svg width="436" height="436" viewBox="0 0 436 436" fill="none" xmlns="http://www.w3.org/2000/svg">
<path d="M409.636 295.991L270.362 65.0171C264.73 56.207 256.971 48.9565 247.8 43.9342C238.628 38.9118 228.34 36.2793 217.884 36.2793C207.428 36.2793 197.14 38.9118 187.969 43.9342C178.797 48.9565 171.038 56.207 165.406 65.0171L26.1321 295.991C21.2121 304.192 18.538 313.544 18.3787 323.107C18.2193 332.669 20.5802 342.105 25.2241 350.466C30.5932 359.877 38.3646 367.694 47.7441 373.117C57.1237 378.541 67.775 381.377 78.6096 381.335H357.159C367.922 381.45 378.525 378.724 387.898 373.432C397.271 368.139 405.083 360.468 410.544 351.192C415.324 342.745 417.761 333.173 417.601 323.468C417.441 313.763 414.692 304.277 409.636 295.991V295.991ZM217.884 308.702C214.293 308.702 210.782 307.637 207.796 305.642C204.81 303.646 202.482 300.811 201.108 297.493C199.734 294.175 199.374 290.523 200.075 287.001C200.775 283.479 202.505 280.243 205.044 277.704C207.584 275.164 210.819 273.435 214.342 272.734C217.864 272.034 221.515 272.393 224.833 273.768C228.151 275.142 230.987 277.469 232.982 280.455C234.977 283.442 236.042 286.952 236.042 290.544C236.042 295.36 234.129 299.978 230.724 303.384C227.319 306.789 222.7 308.702 217.884 308.702ZM236.042 236.069C236.042 240.885 234.129 245.503 230.724 248.908C227.319 252.314 222.7 254.227 217.884 254.227C213.068 254.227 208.45 252.314 205.044 248.908C201.639 245.503 199.726 240.885 199.726 236.069V163.435C199.726 158.619 201.639 154.001 205.044 150.595C208.45 147.19 213.068 145.277 217.884 145.277C222.7 145.277 227.319 147.19 230.724 150.595C234.129 154.001 236.042 158.619 236.042 163.435V236.069Z" fill="#444444"/>
</svg>
