<svg width="80" height="80" viewBox="0 0 80 80" fill="none" xmlns="http://www.w3.org/2000/svg">
    <path d="M27.333 57.6875C26.2223 57.6875 25.278 57.2985 24.5 56.5205C23.722 55.7432 23.333 54.7988 23.333 53.6875V33.2705C23.333 32.1872 23.722 31.2428 24.5 30.4375C25.278 29.6322 26.2223 29.2295 27.333 29.2295H32.667L36.125 25.2705H46.542V32.1455H51.833V37.7705H58.667V53.6875C58.667 54.7988 58.264 55.7432 57.458 56.5205C56.6527 57.2985 55.7083 57.6875 54.625 57.6875H27.333ZM41 50.7295C43.0553 50.7295 44.7843 50.0282 46.187 48.6255C47.5903 47.2222 48.292 45.4928 48.292 43.4375C48.292 41.3822 47.5903 39.6598 46.187 38.2705C44.7843 36.8818 43.0553 36.1875 41 36.1875C38.9447 36.1875 37.2223 36.8818 35.833 38.2705C34.4443 39.6598 33.75 41.3962 33.75 43.4795C33.75 45.5068 34.4443 47.2222 35.833 48.6255C37.2223 50.0282 38.9447 50.7295 41 50.7295V50.7295ZM41 47.6045C39.8053 47.6045 38.8193 47.2085 38.042 46.4165C37.264 45.6252 36.875 44.6462 36.875 43.4795C36.875 42.2848 37.264 41.2915 38.042 40.4995C38.8193 39.7082 39.8053 39.3125 41 39.3125C42.1667 39.3125 43.1527 39.7082 43.958 40.4995C44.764 41.2915 45.167 42.2848 45.167 43.4795C45.167 44.6462 44.764 45.6252 43.958 46.4165C43.1527 47.2085 42.1667 47.6045 41 47.6045ZM54.583 33.1875V29.3545H50.792V26.1045H54.583V22.3125H57.833V26.1455H61.667V29.3955H57.833V33.1875H54.583Z" fill="black"/>
</svg>
