<svg width="14" height="11" viewBox="0 0 14 11" fill="none" xmlns="http://www.w3.org/2000/svg">
<path d="M5.21625 10.9994C5.10199 10.9991 4.98902 10.9752 4.88437 10.9293C4.77972 10.8835 4.68562 10.8166 4.60792 10.7328L0.557917 6.42444C0.406522 6.2631 0.325421 6.04822 0.332453 5.82709C0.339486 5.60595 0.434077 5.39667 0.595417 5.24527C0.756757 5.09388 0.97163 5.01277 1.19277 5.01981C1.4139 5.02684 1.62319 5.12143 1.77458 5.28277L5.20792 8.9411L12.2163 1.27444C12.2874 1.18587 12.3758 1.11278 12.4762 1.05966C12.5766 1.00653 12.6868 0.97449 12.8001 0.965503C12.9133 0.956516 13.0272 0.970772 13.1347 1.0074C13.2422 1.04402 13.3411 1.10224 13.4253 1.17848C13.5095 1.25471 13.5773 1.34736 13.6243 1.45072C13.6714 1.55409 13.6969 1.66599 13.6992 1.77955C13.7014 1.89312 13.6805 2.00595 13.6376 2.11111C13.5946 2.21628 13.5307 2.31156 13.4496 2.3911L5.83292 10.7244C5.75595 10.8097 5.66218 10.8782 5.55749 10.9255C5.4528 10.9728 5.33946 10.998 5.22458 10.9994H5.21625Z" fill="#444444"/>
</svg>
