<svg width="31" height="31" viewBox="0 0 31 31" fill="none" xmlns="http://www.w3.org/2000/svg">
<path d="M15.5957 17.125C16.2861 17.125 16.8457 16.5654 16.8457 15.875C16.8457 15.1846 16.2861 14.625 15.5957 14.625C14.9053 14.625 14.3457 15.1846 14.3457 15.875C14.3457 16.5654 14.9053 17.125 15.5957 17.125Z" fill="#444444"/>
<path d="M20.5957 17.125C21.2861 17.125 21.8457 16.5654 21.8457 15.875C21.8457 15.1846 21.2861 14.625 20.5957 14.625C19.9053 14.625 19.3457 15.1846 19.3457 15.875C19.3457 16.5654 19.9053 17.125 20.5957 17.125Z" fill="#444444"/>
<path d="M10.5957 17.125C11.2861 17.125 11.8457 16.5654 11.8457 15.875C11.8457 15.1846 11.2861 14.625 10.5957 14.625C9.90535 14.625 9.3457 15.1846 9.3457 15.875C9.3457 16.5654 9.90535 17.125 10.5957 17.125Z" fill="#444444"/>
<path d="M24.434 7.0357C22.383 4.97132 19.676 3.68721 16.7797 3.40475C13.8835 3.12229 10.9794 3.85917 8.56819 5.48836C6.15699 7.11755 4.38976 9.53696 3.57117 12.3295C2.75258 15.122 2.93393 18.1126 4.08396 20.7857C4.20382 21.0342 4.24315 21.3138 4.19646 21.5857L3.09646 26.8732C3.05408 27.0759 3.06274 27.286 3.12165 27.4845C3.18056 27.6831 3.28788 27.8639 3.43396 28.0107C3.55372 28.1296 3.6963 28.223 3.85313 28.2853C4.00995 28.3476 4.17777 28.3775 4.34646 28.3732H4.59646L9.94646 27.2982C10.2184 27.2655 10.4941 27.3043 10.7465 27.4107C13.4196 28.5607 16.4102 28.7421 19.2027 27.9235C21.9952 27.1049 24.4146 25.3377 26.0438 22.9265C27.673 20.5153 28.4099 17.6112 28.1274 14.7149C27.8449 11.8186 26.5608 9.11168 24.4965 7.0607L24.434 7.0357ZM25.4715 17.4857C25.2271 18.9782 24.6473 20.3958 23.7759 21.6318C22.9045 22.8679 21.764 23.8902 20.4404 24.6218C19.1168 25.3534 17.6445 25.7752 16.1342 25.8556C14.624 25.9359 13.1152 25.6727 11.7215 25.0857C11.2271 24.8754 10.6961 24.765 10.159 24.7607C9.92431 24.7623 9.69019 24.7832 9.45896 24.8232L5.93396 25.5357L6.64646 22.0107C6.78837 21.2473 6.69689 20.4588 6.38396 19.7482C5.79695 18.3544 5.53372 16.8456 5.61408 15.3354C5.69443 13.8252 6.11629 12.3529 6.84789 11.0293C7.57949 9.70564 8.60178 8.5652 9.83783 7.69376C11.0739 6.82232 12.4915 6.24259 13.984 5.9982C15.5506 5.74109 17.1558 5.86066 18.6671 6.34702C20.1783 6.83338 21.552 7.67255 22.6745 8.79512C23.7971 9.91768 24.6363 11.2914 25.1226 12.8026C25.609 14.3138 25.7286 15.9191 25.4715 17.4857Z" fill="#444444"/>
</svg>
