<svg width="442" height="442" viewBox="0 0 442 442" fill="none" xmlns="http://www.w3.org/2000/svg">
<path d="M347.781 201.593L132.437 204.231L197.378 124.258C198.881 122.404 200.005 120.271 200.684 117.982C201.363 115.693 201.585 113.293 201.337 110.918C200.835 106.122 198.449 101.722 194.704 98.6855C190.958 95.649 186.159 94.2248 181.364 94.7263C176.568 95.2278 172.168 97.6138 169.131 101.36L79.6796 211.414C79.0794 212.288 78.5444 213.205 78.0788 214.158C78.0899 215.066 77.1887 215.622 76.8367 216.534C76.0392 218.626 75.6354 220.847 75.6458 223.086C75.6903 225.324 76.1483 227.535 76.9968 229.607C77.0079 230.515 77.9225 231.049 78.2967 231.952C78.7855 232.893 79.3428 233.796 79.9642 234.656L172.084 342.486C173.817 344.515 175.975 346.137 178.405 347.237C180.835 348.338 183.478 348.889 186.145 348.852C190.388 348.808 194.481 347.28 197.715 344.533C199.535 342.987 201.032 341.096 202.12 338.97C203.208 336.844 203.866 334.524 204.056 332.143C204.246 329.762 203.965 327.367 203.228 325.095C202.491 322.823 201.313 320.719 199.762 318.903L132.882 240.545L348.225 237.907C353.041 237.848 357.636 235.879 360.999 232.432C364.363 228.985 366.219 224.343 366.16 219.528C366.101 214.712 364.132 210.117 360.685 206.754C357.238 203.391 352.596 201.534 347.781 201.593Z" fill="#444444"/>
</svg>
