<svg width="401" height="401" viewBox="0 0 401 401" fill="none" xmlns="http://www.w3.org/2000/svg">
<path d="M200.087 225.307C213.894 225.307 225.087 214.114 225.087 200.307C225.087 186.5 213.894 175.307 200.087 175.307C186.28 175.307 175.087 186.5 175.087 200.307C175.087 214.114 186.28 225.307 200.087 225.307Z" fill="#444444"/>
<path d="M364.588 191.979C353.922 173.479 295.255 80.6453 195.588 83.6453C103.422 85.9787 50.0884 166.979 35.5884 191.979C34.1256 194.512 33.3555 197.386 33.3555 200.312C33.3555 203.238 34.1256 206.112 35.5884 208.645C46.0884 226.812 102.255 316.979 200.422 316.979H204.588C296.755 314.645 350.255 233.645 364.588 208.645C366.051 206.112 366.821 203.238 366.821 200.312C366.821 197.386 366.051 194.512 364.588 191.979V191.979ZM200.088 258.645C188.551 258.645 177.273 255.224 167.68 248.814C158.087 242.405 150.611 233.294 146.195 222.635C141.78 211.976 140.625 200.247 142.876 188.932C145.127 177.616 150.682 167.222 158.84 159.064C166.999 150.906 177.393 145.35 188.708 143.1C200.024 140.849 211.753 142.004 222.412 146.419C233.071 150.834 242.181 158.311 248.591 167.904C255.001 177.497 258.422 188.775 258.422 200.312C258.422 215.783 252.276 230.62 241.336 241.56C230.397 252.5 215.559 258.645 200.088 258.645V258.645Z" fill="#444444"/>
</svg>
