<svg width="20" height="20" viewBox="0 0 20 20" fill="none" xmlns="http://www.w3.org/2000/svg">
<path d="M7.08334 5.83334C7.65416 5.85226 8.19416 6.09693 8.58476 6.51362C8.97536 6.93031 9.18464 7.48498 9.16667 8.05584C9.16667 9.16667 8.23417 9.16667 7.08334 9.16667C5.9325 9.16667 5 9.16667 5 8.05584C4.98203 7.48498 5.19131 6.93031 5.58192 6.51362C5.97252 6.09693 6.51251 5.85226 7.08334 5.83334ZM10.8333 8.05584C10.8333 9.16667 11.7658 9.16667 12.9167 9.16667C14.0675 9.16667 15 9.16667 15 8.05584C15.018 7.48498 14.8087 6.93031 14.4181 6.51362C14.0275 6.09693 13.4875 5.85226 12.9167 5.83334C12.3458 5.85226 11.8058 6.09693 11.4152 6.51362C11.0246 6.93031 10.8154 7.48498 10.8333 8.05584ZM20 10C20 8.02219 19.4135 6.08879 18.3147 4.4443C17.2159 2.79981 15.6541 1.51809 13.8268 0.761209C11.9996 0.00433283 9.98891 -0.1937 8.0491 0.192152C6.10929 0.578004 4.32746 1.53041 2.92894 2.92894C1.53041 4.32746 0.578004 6.10929 0.192152 8.0491C-0.1937 9.98891 0.00433283 11.9996 0.761209 13.8268C1.51809 15.6541 2.79981 17.2159 4.4443 18.3147C6.08879 19.4135 8.02219 20 10 20C12.6513 19.9971 15.1932 18.9426 17.0679 17.0679C18.9426 15.1932 19.9971 12.6513 20 10ZM17.5 10C17.5 11.4834 17.0601 12.9334 16.236 14.1668C15.4119 15.4001 14.2406 16.3614 12.8701 16.9291C11.4997 17.4968 9.99168 17.6453 8.53683 17.3559C7.08197 17.0665 5.7456 16.3522 4.6967 15.3033C3.64781 14.2544 2.9335 12.918 2.64411 11.4632C2.35473 10.0083 2.50325 8.50032 3.07091 7.12988C3.63856 5.75943 4.59986 4.58809 5.83323 3.76398C7.06659 2.93987 8.51664 2.5 10 2.5C11.9884 2.50243 13.8946 3.29338 15.3006 4.69938C16.7066 6.10538 17.4976 8.01162 17.5 10ZM14.6308 12.97C14.8602 12.7356 14.9883 12.4205 14.9875 12.0925C14.9866 11.7645 14.8569 11.45 14.6263 11.2168C14.3958 10.9836 14.0828 10.8504 13.7548 10.8458C13.4269 10.8413 13.1103 10.9658 12.8733 11.1925C12.0884 11.9369 11.0769 12.3972 10 12.5C8.92507 12.3975 7.9152 11.9388 7.13084 11.1967C6.89436 10.9696 6.57815 10.8446 6.25034 10.8485C5.92254 10.8523 5.60938 10.9848 5.37834 11.2174C5.1473 11.45 5.01687 11.764 5.01515 12.0918C5.01344 12.4197 5.14057 12.735 5.36917 12.97C6.62385 14.1735 8.26477 14.8928 10 15C11.7352 14.8928 13.3762 14.1735 14.6308 12.97Z" fill="#444444"/>
</svg>
