<svg width="404" height="403" viewBox="0 0 404 403" fill="none" xmlns="http://www.w3.org/2000/svg">
<path d="M201.903 352.022C199.697 352.035 197.511 351.612 195.469 350.778C193.427 349.944 191.57 348.715 190.004 347.162L59.7862 216.776C43.4522 200.272 34.29 177.989 34.29 154.768C34.29 131.547 43.4522 109.264 59.7862 92.7594C76.248 76.3441 98.5471 67.126 121.795 67.126C145.042 67.126 167.341 76.3441 183.803 92.7594L201.903 110.859L220.003 92.7594C236.464 76.3441 258.764 67.126 282.011 67.126C305.259 67.126 327.558 76.3441 344.02 92.7594C360.354 109.264 369.516 131.547 369.516 154.768C369.516 177.989 360.354 200.272 344.02 216.776L213.802 347.162C212.236 348.715 210.379 349.944 208.337 350.778C206.295 351.612 204.109 352.035 201.903 352.022Z" fill="#FF0000"/>
</svg>
