<svg width="481" height="481" viewBox="0 0 481 481" fill="none" xmlns="http://www.w3.org/2000/svg">
<path d="M268.941 240.761L354.914 154.988C358.679 151.223 360.794 146.117 360.794 140.792C360.794 135.468 358.679 130.362 354.914 126.597C351.149 122.832 346.042 120.717 340.718 120.717C335.394 120.717 330.287 122.832 326.523 126.597L240.749 212.57L154.976 126.597C151.211 122.832 146.105 120.717 140.781 120.717C135.456 120.717 130.35 122.832 126.585 126.597C122.82 130.362 120.705 135.468 120.705 140.792C120.705 146.117 122.82 151.223 126.585 154.988L212.558 240.761L126.585 326.534C124.711 328.393 123.224 330.604 122.209 333.041C121.194 335.477 120.671 338.09 120.671 340.73C120.671 343.369 121.194 345.983 122.209 348.419C123.224 350.855 124.711 353.067 126.585 354.925C128.444 356.799 130.655 358.287 133.091 359.302C135.528 360.317 138.141 360.84 140.781 360.84C143.42 360.84 146.033 360.317 148.47 359.302C150.906 358.287 153.117 356.799 154.976 354.925L240.749 268.952L326.523 354.925C328.381 356.799 330.593 358.287 333.029 359.302C335.465 360.317 338.079 360.84 340.718 360.84C343.357 360.84 345.971 360.317 348.407 359.302C350.844 358.287 353.055 356.799 354.914 354.925C356.788 353.067 358.275 350.855 359.29 348.419C360.305 345.983 360.828 343.369 360.828 340.73C360.828 338.09 360.305 335.477 359.29 333.041C358.275 330.604 356.788 328.393 354.914 326.534L268.941 240.761Z" fill="#444444"/>
</svg>
