<svg width="20" height="20" viewBox="0 0 20 20" fill="none" xmlns="http://www.w3.org/2000/svg">
<path d="M10 18.3347C8.70757 18.366 7.45544 17.8836 6.51816 16.9932C5.58087 16.1028 5.03492 14.877 5 13.5847V5.10967C5.02403 4.17542 5.4172 3.28875 6.09347 2.64372C6.76973 1.99869 7.674 1.64786 8.60833 1.668C9.5441 1.64562 10.4505 1.99546 11.1286 2.64072C11.8067 3.28599 12.201 4.17395 12.225 5.10967V13.593C12.1903 14.1585 11.9413 14.6895 11.5286 15.0776C11.1159 15.4658 10.5707 15.6819 10.0042 15.6819C9.43762 15.6819 8.89241 15.4658 8.47973 15.0776C8.06705 14.6895 7.81799 14.1585 7.78333 13.593V5.768C7.78333 5.54699 7.87113 5.33503 8.02741 5.17875C8.18369 5.02247 8.39565 4.93467 8.61667 4.93467C8.83768 4.93467 9.04964 5.02247 9.20592 5.17875C9.3622 5.33503 9.45 5.54699 9.45 5.768V13.593C9.46662 13.7283 9.53214 13.8528 9.63422 13.9431C9.7363 14.0334 9.86788 14.0833 10.0042 14.0833C10.1405 14.0833 10.272 14.0334 10.3741 13.9431C10.4762 13.8528 10.5417 13.7283 10.5583 13.593V5.10967C10.5324 4.61668 10.3131 4.15379 9.94806 3.82148C9.58299 3.48917 9.10158 3.31424 8.60833 3.33467C8.11649 3.31649 7.63723 3.49242 7.27397 3.8245C6.91071 4.15658 6.69258 4.61818 6.66667 5.10967V13.5847C6.70136 14.435 7.07164 15.237 7.69641 15.8149C8.32118 16.3928 9.14951 16.6996 10 16.668C10.8505 16.6996 11.6788 16.3928 12.3036 15.8149C12.9284 15.237 13.2986 14.435 13.3333 13.5847V5.10967C13.3333 4.88866 13.4211 4.6767 13.5774 4.52041C13.7337 4.36413 13.9457 4.27634 14.1667 4.27634C14.3877 4.27634 14.5996 4.36413 14.7559 4.52041C14.9122 4.6767 15 4.88866 15 5.10967V13.5847C14.9651 14.877 14.4191 16.1028 13.4818 16.9932C12.5446 17.8836 11.2924 18.366 10 18.3347V18.3347Z" fill="#444444"/>
</svg>
