<svg width="20" height="20" viewBox="0 0 20 20" fill="none" xmlns="http://www.w3.org/2000/svg">
<path d="M10 0C8.02219 0 6.08879 0.58649 4.4443 1.6853C2.79981 2.78412 1.51809 4.3459 0.761209 6.17317C0.00433284 8.00043 -0.193701 10.0111 0.192152 11.9509C0.578004 13.8907 1.53041 15.6725 2.92894 17.0711C4.32746 18.4696 6.10929 19.422 8.0491 19.8079C9.98891 20.1937 11.9996 19.9957 13.8268 19.2388C15.6541 18.4819 17.2159 17.2002 18.3147 15.5557C19.4135 13.9112 20 11.9778 20 10C20 8.68678 19.7413 7.38642 19.2388 6.17317C18.7363 4.95991 17.9997 3.85752 17.0711 2.92893C16.1425 2.00035 15.0401 1.26375 13.8268 0.761205C12.6136 0.258658 11.3132 0 10 0V0ZM10 16C9.80222 16 9.60888 15.9414 9.44444 15.8315C9.27999 15.7216 9.15181 15.5654 9.07613 15.3827C9.00044 15.2 8.98064 14.9989 9.01922 14.8049C9.05781 14.6109 9.15305 14.4327 9.2929 14.2929C9.43275 14.153 9.61093 14.0578 9.80492 14.0192C9.9989 13.9806 10.2 14.0004 10.3827 14.0761C10.5654 14.1518 10.7216 14.28 10.8315 14.4444C10.9414 14.6089 11 14.8022 11 15C11 15.2652 10.8946 15.5196 10.7071 15.7071C10.5196 15.8946 10.2652 16 10 16ZM11 10.84V12C11 12.2652 10.8946 12.5196 10.7071 12.7071C10.5196 12.8946 10.2652 13 10 13C9.73479 13 9.48044 12.8946 9.2929 12.7071C9.10536 12.5196 9.00001 12.2652 9.00001 12V10C9.00001 9.73478 9.10536 9.48043 9.2929 9.29289C9.48044 9.10536 9.73479 9 10 9C10.2967 9 10.5867 8.91203 10.8334 8.74721C11.08 8.58238 11.2723 8.34812 11.3858 8.07403C11.4994 7.79994 11.5291 7.49834 11.4712 7.20736C11.4133 6.91639 11.2704 6.64912 11.0607 6.43934C10.8509 6.22956 10.5836 6.0867 10.2926 6.02882C10.0017 5.97094 9.70007 6.00065 9.42598 6.11418C9.15189 6.22771 8.91762 6.41997 8.7528 6.66665C8.58798 6.91332 8.50001 7.20333 8.50001 7.5C8.50001 7.76522 8.39465 8.01957 8.20711 8.20711C8.01958 8.39464 7.76522 8.5 7.50001 8.5C7.23479 8.5 6.98043 8.39464 6.7929 8.20711C6.60536 8.01957 6.50001 7.76522 6.50001 7.5C6.49739 6.8503 6.67566 6.2127 7.01487 5.65858C7.35408 5.10445 7.84083 4.65568 8.42062 4.36251C9.00042 4.06933 9.65037 3.94332 10.2977 3.99859C10.9451 4.05386 11.5643 4.28823 12.086 4.67545C12.6077 5.06267 13.0113 5.58746 13.2517 6.19107C13.492 6.79467 13.5596 7.45327 13.4469 8.09312C13.3342 8.73297 13.0456 9.32882 12.6134 9.81396C12.1813 10.2991 11.6226 10.6544 11 10.84V10.84Z" fill="#7777FF"/>
</svg>
