<svg width="28" height="25" viewBox="0 0 28 25" fill="none" xmlns="http://www.w3.org/2000/svg">
<path d="M27.1989 18.8754L17.6114 2.97535C17.2237 2.36887 16.6896 1.86976 16.0583 1.52402C15.4269 1.17829 14.7187 0.99707 13.9989 0.99707C13.2791 0.99707 12.5709 1.17829 11.9396 1.52402C11.3082 1.86976 10.7741 2.36887 10.3864 2.97535L0.798905 18.8754C0.460222 19.4399 0.276141 20.0837 0.265169 20.742C0.254198 21.4003 0.416723 22.0498 0.736405 22.6254C1.106 23.2732 1.64098 23.8113 2.28666 24.1846C2.93234 24.558 3.66556 24.7532 4.41141 24.7504H23.5864C24.3274 24.7583 25.0573 24.5706 25.7025 24.2063C26.3478 23.842 26.8855 23.3139 27.2614 22.6754C27.5905 22.0938 27.7582 21.435 27.7472 20.7669C27.7362 20.0988 27.547 19.4458 27.1989 18.8754V18.8754ZM13.9989 19.7504C13.7517 19.7504 13.51 19.6771 13.3045 19.5397C13.0989 19.4024 12.9387 19.2071 12.8441 18.9787C12.7495 18.7503 12.7247 18.499 12.7729 18.2565C12.8212 18.014 12.9402 17.7913 13.115 17.6165C13.2899 17.4417 13.5126 17.3226 13.7551 17.2744C13.9975 17.2262 14.2489 17.2509 14.4773 17.3455C14.7057 17.4401 14.9009 17.6003 15.0383 17.8059C15.1756 18.0115 15.2489 18.2531 15.2489 18.5004C15.2489 18.8319 15.1172 19.1498 14.8828 19.3843C14.6484 19.6187 14.3304 19.7504 13.9989 19.7504ZM15.2489 14.7504C15.2489 15.0819 15.1172 15.3998 14.8828 15.6342C14.6484 15.8687 14.3304 16.0004 13.9989 16.0004C13.6674 16.0004 13.3495 15.8687 13.115 15.6342C12.8806 15.3998 12.7489 15.0819 12.7489 14.7504V9.75036C12.7489 9.41884 12.8806 9.1009 13.115 8.86648C13.3495 8.63205 13.6674 8.50036 13.9989 8.50036C14.3304 8.50036 14.6484 8.63205 14.8828 8.86648C15.1172 9.1009 15.2489 9.41884 15.2489 9.75036V14.7504Z" fill="#444444"/>
</svg>
