<svg width="26" height="26" viewBox="0 0 26 26" fill="none" xmlns="http://www.w3.org/2000/svg">
<path d="M8.76187 25.5C8.1519 25.4964 7.55964 25.2946 7.07437 24.925L4.48687 23C3.88976 22.5344 3.49357 21.8579 3.37966 21.1094C3.26575 20.3608 3.44277 19.5971 3.87437 18.975C4.10273 18.6378 4.24786 18.2513 4.29784 17.8471C4.34782 17.4429 4.30122 17.0327 4.16187 16.65L4.08687 16.45C3.98985 16.1036 3.81251 15.785 3.56926 15.5201C3.326 15.2551 3.02369 15.0512 2.68687 14.925H2.48687C1.75671 14.6795 1.15288 14.1558 0.806508 13.4678C0.460133 12.7797 0.399175 11.9827 0.636872 11.25L1.66187 8C1.75623 7.62345 1.92994 7.27141 2.17139 6.96745C2.41284 6.66348 2.71644 6.41461 3.06187 6.2375C3.38356 6.07175 3.73554 5.973 4.09649 5.94721C4.45745 5.92143 4.81989 5.96916 5.16187 6.0875C5.53423 6.21282 5.93155 6.2453 6.31932 6.18212C6.70708 6.11895 7.07355 5.96203 7.38687 5.725L7.54937 5.6C7.83299 5.37369 8.06221 5.08663 8.22014 4.75996C8.37806 4.43329 8.46067 4.07534 8.46187 3.7125V3.4125C8.45851 2.64766 8.75743 1.91247 9.29356 1.36698C9.82968 0.82149 10.5596 0.509883 11.3244 0.5H14.5119C14.884 0.501003 15.2522 0.575505 15.5954 0.719229C15.9386 0.862952 16.2501 1.07307 16.5119 1.3375C17.0622 1.89724 17.368 2.65253 17.3619 3.4375V3.7875C17.3555 4.13219 17.4303 4.47355 17.5801 4.78404C17.7299 5.09453 17.9506 5.36547 18.2244 5.575L18.3619 5.675C18.6424 5.88538 18.9697 6.0248 19.3157 6.08139C19.6618 6.13798 20.0164 6.11006 20.3494 6L20.7744 5.8625C21.1345 5.74314 21.5149 5.69752 21.893 5.72837C22.2711 5.75922 22.6391 5.8659 22.975 6.04205C23.311 6.2182 23.6081 6.46021 23.8485 6.75365C24.0889 7.04709 24.2677 7.38594 24.3744 7.75L25.3619 10.9C25.5904 11.628 25.5279 12.4162 25.1876 13.0991C24.8473 13.782 24.2557 14.3065 23.5369 14.5625L23.2869 14.65C22.9192 14.7704 22.5867 14.9793 22.3186 15.2583C22.0505 15.5372 21.855 15.8778 21.7494 16.25C21.6499 16.596 21.6263 16.9594 21.6802 17.3154C21.7342 17.6714 21.8643 18.0115 22.0619 18.3125L22.3869 18.7875C22.8179 19.4131 22.9932 20.1798 22.877 20.9305C22.7608 21.6812 22.3618 22.359 21.7619 22.825L19.2494 24.7625C18.9458 24.9946 18.598 25.1622 18.2273 25.2548C17.8565 25.3475 17.4707 25.3632 17.0937 25.3012C16.7166 25.2391 16.3563 25.1005 16.0348 24.894C15.7133 24.6874 15.4375 24.4172 15.2244 24.1L15.0744 23.8875C14.8696 23.5798 14.5903 23.329 14.2624 23.1586C13.9345 22.9881 13.5688 22.9034 13.1994 22.9125C12.8468 22.9216 12.5014 23.0135 12.1909 23.1807C11.8804 23.3479 11.6135 23.5857 11.4119 23.875L11.1244 24.2875C10.9112 24.6069 10.6348 24.8793 10.3124 25.0878C9.98988 25.2963 9.62813 25.4366 9.24937 25.5C9.08726 25.5159 8.92398 25.5159 8.76187 25.5V25.5ZM3.49937 12.525C4.20524 12.7767 4.84215 13.1906 5.35887 13.7334C5.87559 14.2761 6.25767 14.9326 6.47437 15.65V15.8C6.74429 16.5458 6.83292 17.3451 6.73294 18.1319C6.63296 18.9187 6.34724 19.6704 5.89937 20.325C5.82032 20.4123 5.77654 20.5259 5.77654 20.6437C5.77654 20.7616 5.82032 20.8752 5.89937 20.9625L8.58687 23C8.62194 23.0275 8.66249 23.0473 8.7058 23.0578C8.74911 23.0684 8.79419 23.0696 8.838 23.0613C8.88181 23.053 8.92333 23.0354 8.95979 23.0098C8.99625 22.9841 9.02679 22.9509 9.04937 22.9125L9.33687 22.5C9.77048 21.8735 10.3496 21.3614 11.0244 21.0077C11.6993 20.6541 12.4499 20.4693 13.2119 20.4693C13.9738 20.4693 14.7244 20.6541 15.3993 21.0077C16.0742 21.3614 16.6533 21.8735 17.0869 22.5L17.2369 22.725C17.2906 22.8012 17.3708 22.8547 17.4619 22.875C17.5036 22.8812 17.5462 22.8788 17.587 22.8681C17.6278 22.8573 17.6661 22.8384 17.6994 22.8125L20.2744 20.8625C20.3645 20.791 20.4238 20.6876 20.4401 20.5737C20.4564 20.4598 20.4284 20.3439 20.3619 20.25L20.0369 19.775C19.6134 19.1575 19.334 18.4528 19.2194 17.7129C19.1047 16.9729 19.1577 16.2167 19.3744 15.5C19.5941 14.7467 19.9914 14.0572 20.5331 13.4895C21.0747 12.9217 21.7448 12.4924 22.4869 12.2375L22.7369 12.15C22.8411 12.1083 22.9245 12.027 22.969 11.924C23.0135 11.8209 23.0154 11.7045 22.9744 11.6L21.9994 8.4875C21.976 8.43304 21.9417 8.38391 21.8988 8.34308C21.8558 8.30225 21.805 8.27059 21.7494 8.25C21.7126 8.23133 21.6719 8.2216 21.6306 8.2216C21.5894 8.2216 21.5487 8.23133 21.5119 8.25L21.0869 8.3875C20.3679 8.62478 19.6021 8.6839 18.8553 8.55979C18.1084 8.43568 17.4029 8.13205 16.7994 7.675L16.7494 7.5625C16.1702 7.1239 15.7006 6.55702 15.3775 5.90636C15.0543 5.2557 14.8864 4.53899 14.8869 3.8125V3.425C14.8891 3.30452 14.8443 3.18791 14.7619 3.1C14.69 3.03501 14.5963 2.99933 14.4994 3H11.3244C11.2734 3.00318 11.2237 3.01638 11.1778 3.03886C11.132 3.06133 11.0911 3.09263 11.0574 3.13095C11.0238 3.16928 10.998 3.21388 10.9816 3.2622C10.9652 3.31051 10.9585 3.36159 10.9619 3.4125V3.725C10.9619 4.4713 10.7907 5.20765 10.4613 5.87731C10.1319 6.54698 9.65309 7.13207 9.06187 7.5875L8.89937 7.7125C8.26153 8.19813 7.51403 8.51941 6.72274 8.64802C5.93145 8.77664 5.12068 8.70863 4.36187 8.45C4.3051 8.43094 4.24365 8.43094 4.18687 8.45C4.11633 8.49286 4.0632 8.55927 4.03687 8.6375L2.99937 11.9C2.96321 12.0111 2.97168 12.1319 3.023 12.2369C3.07433 12.3419 3.16447 12.4228 3.27437 12.4625L3.49937 12.525Z" fill="#444444"/>
<path d="M13 17.375C12.1347 17.375 11.2888 17.1184 10.5694 16.6377C9.84992 16.157 9.28916 15.4737 8.95803 14.6742C8.6269 13.8748 8.54026 12.9951 8.70907 12.1465C8.87788 11.2978 9.29456 10.5183 9.90641 9.90641C10.5183 9.29456 11.2978 8.87788 12.1465 8.70907C12.9951 8.54026 13.8748 8.6269 14.6742 8.95803C15.4737 9.28916 16.157 9.84992 16.6377 10.5694C17.1184 11.2888 17.375 12.1347 17.375 13C17.375 14.1603 16.9141 15.2731 16.0936 16.0936C15.2731 16.9141 14.1603 17.375 13 17.375V17.375ZM13 11.125C12.6292 11.125 12.2667 11.235 11.9583 11.441C11.65 11.647 11.4096 11.9399 11.2677 12.2825C11.1258 12.6251 11.0887 13.0021 11.161 13.3658C11.2334 13.7295 11.412 14.0636 11.6742 14.3258C11.9364 14.5881 12.2705 14.7666 12.6342 14.839C12.9979 14.9113 13.3749 14.8742 13.7175 14.7323C14.0601 14.5904 14.353 14.35 14.559 14.0417C14.765 13.7334 14.875 13.3708 14.875 13C14.875 12.5027 14.6775 12.0258 14.3258 11.6742C13.9742 11.3225 13.4973 11.125 13 11.125Z" fill="#444444"/>
</svg>
