<svg width="28" height="26" viewBox="0 0 28 26" fill="none" xmlns="http://www.w3.org/2000/svg">
<path d="M4.78102 25.3125C3.96852 25.3125 3.27581 25.026 2.7029 24.4531C2.12998 23.8802 1.84352 23.1875 1.84352 22.375V12.0312C1.21852 11.4062 0.84352 10.6875 0.71852 9.875C0.59352 9.0625 0.645604 8.28125 0.87477 7.53125L2.21852 3.3125C2.44769 2.58333 2.8331 2.00521 3.37477 1.57813C3.91644 1.15104 4.55185 0.9375 5.28102 0.9375H22.5623C23.3123 0.9375 23.9789 1.15625 24.5623 1.59375C25.1456 2.03125 25.5414 2.60417 25.7498 3.3125L27.1248 7.53125C27.3539 8.26042 27.3904 9.02083 27.2341 9.8125C27.0779 10.6042 26.7185 11.3021 26.156 11.9062V22.375C26.156 23.1875 25.8644 23.8802 25.281 24.4531C24.6977 25.026 23.9998 25.3125 23.1873 25.3125H4.78102ZM16.8123 10.5312C17.3123 10.5312 17.7498 10.3698 18.1248 10.0469C18.4998 9.72396 18.6456 9.3125 18.5623 8.8125L17.8123 3.90625H15.2185V8.78125C15.2185 9.26042 15.3696 9.67188 15.6716 10.0156C15.9737 10.3594 16.3539 10.5312 16.8123 10.5312V10.5312ZM10.9685 10.5312C11.4477 10.5312 11.8696 10.3646 12.2341 10.0313C12.5987 9.69792 12.781 9.28125 12.781 8.78125V3.90625H10.1873L9.43727 8.8125C9.37477 9.27083 9.48935 9.67188 9.78102 10.0156C10.0727 10.3594 10.4685 10.5312 10.9685 10.5312V10.5312ZM5.28102 10.5312C5.71852 10.5312 6.09352 10.375 6.40602 10.0625C6.71852 9.75 6.8956 9.38542 6.93727 8.96875L7.71852 3.90625H5.12477L3.74977 8.25C3.56227 8.85417 3.62477 9.38542 3.93727 9.84375C4.24977 10.3021 4.69769 10.5312 5.28102 10.5312ZM22.6873 10.5312C23.2706 10.5312 23.7237 10.3073 24.0466 9.85938C24.3696 9.41146 24.4373 8.875 24.2498 8.25L22.8748 3.90625H20.3123L21.0623 8.96875C21.1039 9.38542 21.281 9.75 21.5935 10.0625C21.906 10.375 22.2706 10.5312 22.6873 10.5312V10.5312ZM4.78102 22.375H23.1873V13.4687H22.6873C22.2706 13.4687 21.8175 13.3802 21.3279 13.2031C20.8383 13.026 20.3331 12.7396 19.8123 12.3438C19.4581 12.6979 19.031 12.974 18.531 13.1719C18.031 13.3698 17.4894 13.4687 16.906 13.4687C16.3227 13.4687 15.8019 13.3958 15.3435 13.25C14.8852 13.1042 14.4373 12.8646 13.9998 12.5312C13.6456 12.8437 13.2341 13.0781 12.7654 13.2344C12.2966 13.3906 11.7706 13.4687 11.1873 13.4687C10.5831 13.4687 10.031 13.375 9.53102 13.1875C9.03102 13 8.5831 12.7188 8.18727 12.3438C7.62477 12.7396 7.0831 13.026 6.56227 13.2031C6.04144 13.3802 5.61435 13.4687 5.28102 13.4687H4.78102V22.375ZM23.1873 22.375H4.78102H23.1873Z" fill="#444444"/>
</svg>
