<svg width="10" height="18" viewBox="0 0 10 18" fill="none" xmlns="http://www.w3.org/2000/svg">
<path d="M1.50025 17.7533C1.20818 17.7539 0.925137 17.6522 0.700247 17.4658C0.573674 17.3609 0.469046 17.232 0.392356 17.0866C0.315666 16.9412 0.268421 16.782 0.253326 16.6183C0.238231 16.4546 0.255584 16.2895 0.304389 16.1325C0.353195 15.9755 0.432494 15.8297 0.537746 15.7033L6.13775 9.00334L0.737747 2.29084C0.633915 2.16298 0.556375 2.01586 0.509586 1.85794C0.462796 1.70002 0.447679 1.5344 0.465103 1.37062C0.482527 1.20683 0.532148 1.0481 0.611115 0.903557C0.690082 0.759011 0.796839 0.631497 0.925247 0.528344C1.05458 0.414548 1.20604 0.328714 1.37011 0.276227C1.53419 0.223741 1.70735 0.205736 1.87872 0.223342C2.05008 0.240949 2.21596 0.293786 2.36594 0.378538C2.51591 0.46329 2.64675 0.578128 2.75025 0.715844L8.78775 8.21584C8.9716 8.43951 9.07211 8.72006 9.07211 9.00959C9.07211 9.29913 8.9716 9.57968 8.78775 9.80334L2.53775 17.3033C2.41235 17.4546 2.25306 17.5742 2.0728 17.6524C1.89253 17.7306 1.69638 17.7652 1.50025 17.7533Z" fill="#444444"/>
</svg>
